<?xml version="1.0" encoding="UTF-8" standalone="no"?>
<!-- Created with Inkscape (http://www.inkscape.org/) -->

<svg
   version="1.1"
   id="svg1380"
   xml:space="preserve"
   width="682.66669"
   height="682.66669"
   viewBox="0 0 682.66669 682.66669"
   xmlns="http://www.w3.org/2000/svg"
   xmlns:svg="http://www.w3.org/2000/svg"><defs
     id="defs1384"><clipPath
       clipPathUnits="userSpaceOnUse"
       id="clipPath1396"><path
         d="M 0,512 H 512 V 0 H 0 Z"
         id="path1394" /></clipPath><clipPath
       clipPathUnits="userSpaceOnUse"
       id="clipPath1410"><path
         d="M 0,512 H 512 V 0 H 0 Z"
         id="path1408" /></clipPath><clipPath
       clipPathUnits="userSpaceOnUse"
       id="clipPath1422"><path
         d="M 0,512 H 512 V 0 H 0 Z"
         id="path1420" /></clipPath><clipPath
       clipPathUnits="userSpaceOnUse"
       id="clipPath1434"><path
         d="M 0,512 H 512 V 0 H 0 Z"
         id="path1432" /></clipPath><clipPath
       clipPathUnits="userSpaceOnUse"
       id="clipPath1446"><path
         d="M 0,512 H 512 V 0 H 0 Z"
         id="path1444" /></clipPath><clipPath
       clipPathUnits="userSpaceOnUse"
       id="clipPath1458"><path
         d="M 0,512 H 512 V 0 H 0 Z"
         id="path1456" /></clipPath></defs><g
     id="g1386"
     transform="matrix(1.3333333,0,0,-1.3333333,0,682.66667)"><path
       d="m 412,457 h -60 v 40 h 60 z"
       style="fill:#c68a86;fill-opacity:1;fill-rule:nonzero;stroke:none"
       id="path1388" /><g
       id="g1390"><g
         id="g1392"
         clip-path="url(#clipPath1396)"><path
           d="m 412,457 h -60 v 40 h 60 z"
           style="fill:none;stroke:#000000;stroke-width:20;stroke-linecap:round;stroke-linejoin:round;stroke-miterlimit:10;stroke-dasharray:none;stroke-opacity:1"
           id="path1398" /></g></g><path
       d="m 352,377 h 60 V 135 h -60 z"
       style="fill:#c68a86;fill-opacity:1;fill-rule:nonzero;stroke:#000000;stroke-width:20;stroke-linecap:round;stroke-linejoin:round;stroke-miterlimit:10;stroke-dasharray:136, 45, 0, 45, 1000;stroke-dashoffset:0;stroke-opacity:1"
       id="path1400" /><path
       d="M 502,417 H 262 v 40 h 240 z"
       style="fill:#ffd0c7;fill-opacity:1;fill-rule:nonzero;stroke:none"
       id="path1402" /><g
       id="g1404"><g
         id="g1406"
         clip-path="url(#clipPath1410)"><path
           d="M 502,417 H 262 v 40 h 240 z"
           style="fill:none;stroke:#000000;stroke-width:20;stroke-linecap:round;stroke-linejoin:round;stroke-miterlimit:10;stroke-dasharray:none;stroke-opacity:1"
           id="path1412" /></g></g><path
       d="M 502,377 H 262 v 40 h 240 z"
       style="fill:#ffd0c7;fill-opacity:1;fill-rule:nonzero;stroke:none"
       id="path1414" /><g
       id="g1416"><g
         id="g1418"
         clip-path="url(#clipPath1422)"><path
           d="M 502,377 H 262 v 40 h 240 z"
           style="fill:none;stroke:#000000;stroke-width:20;stroke-linecap:round;stroke-linejoin:round;stroke-miterlimit:10;stroke-dasharray:none;stroke-opacity:1"
           id="path1424" /></g></g><path
       d="m 352,55 h 60 V 15 h -60 z"
       style="fill:#c68a86;fill-opacity:1;fill-rule:nonzero;stroke:none"
       id="path1426" /><g
       id="g1428"><g
         id="g1430"
         clip-path="url(#clipPath1434)"><path
           d="m 352,55 h 60 V 15 h -60 z"
           style="fill:none;stroke:#000000;stroke-width:20;stroke-linecap:round;stroke-linejoin:round;stroke-miterlimit:10;stroke-dasharray:none;stroke-opacity:1"
           id="path1436" /></g></g><path
       d="M 262,95 H 502 V 55 H 262 Z"
       style="fill:#ffd0c7;fill-opacity:1;fill-rule:nonzero;stroke:none"
       id="path1438" /><g
       id="g1440"><g
         id="g1442"
         clip-path="url(#clipPath1446)"><path
           d="M 262,95 H 502 V 55 H 262 Z"
           style="fill:none;stroke:#000000;stroke-width:20;stroke-linecap:round;stroke-linejoin:round;stroke-miterlimit:10;stroke-dasharray:none;stroke-opacity:1"
           id="path1448" /></g></g><path
       d="M 262,135 H 502 V 95 H 262 Z"
       style="fill:#ffd0c7;fill-opacity:1;fill-rule:nonzero;stroke:none"
       id="path1450" /><g
       id="g1452"><g
         id="g1454"
         clip-path="url(#clipPath1458)"><path
           d="M 262,135 H 502 V 95 H 262 Z"
           style="fill:none;stroke:#000000;stroke-width:20;stroke-linecap:round;stroke-linejoin:round;stroke-miterlimit:10;stroke-dasharray:none;stroke-opacity:1"
           id="path1460" /><g
           id="g1462"
           transform="translate(94.3843,281.751)"><path
             d="m 0,0 -22.29,38.608 c -2.027,3.511 -3.094,7.493 -3.094,11.547 0,12.755 10.339,23.094 23.093,23.094 h 125.813 c 12.754,0 23.094,-10.339 23.094,-23.094 0,-4.054 -1.067,-8.036 -3.094,-11.547 L 121.231,0 C 102.787,8.5 82.257,13.249 60.616,13.249 38.975,13.249 18.445,8.5 0,0 m 154.934,-21.625 23.229,40.233 c 5.537,9.591 8.453,20.472 8.453,31.547 0,34.846 -28.248,63.094 -63.094,63.094 H -2.291 c -34.845,0 -63.093,-28.248 -63.093,-63.094 0,-11.075 2.915,-21.956 8.453,-31.547 l 23.228,-40.233 c -31.021,-26.594 -50.681,-66.062 -50.681,-110.126 0,-80.082 64.919,-135 145,-135 80.081,0 145,54.918 145,135 0,44.064 -19.66,83.532 -50.682,110.126"
             style="fill:#b6bccf;fill-opacity:1;fill-rule:nonzero;stroke:none"
             id="path1464" /></g><g
           id="g1466"
           transform="translate(94.3843,281.751)"><path
             d="m 0,0 -22.29,38.608 c -2.027,3.511 -3.094,7.493 -3.094,11.547 0,12.755 10.339,23.094 23.093,23.094 h 125.813 c 12.754,0 23.094,-10.339 23.094,-23.094 0,-4.054 -1.067,-8.036 -3.094,-11.547 L 121.231,0 C 102.787,8.5 82.257,13.249 60.616,13.249 38.975,13.249 18.445,8.5 0,0 Z m 154.934,-21.625 23.229,40.233 c 5.537,9.591 8.453,20.472 8.453,31.547 0,34.846 -28.248,63.094 -63.094,63.094 H -2.291 c -34.845,0 -63.093,-28.248 -63.093,-63.094 0,-11.075 2.915,-21.956 8.453,-31.547 l 23.228,-40.233 c -31.021,-26.594 -50.681,-66.062 -50.681,-110.126 0,-80.082 64.919,-135 145,-135 80.081,0 145,54.918 145,135 0,44.064 -19.66,83.532 -50.682,110.126 z"
             style="fill:none;stroke:#000000;stroke-width:20;stroke-linecap:round;stroke-linejoin:round;stroke-miterlimit:10;stroke-dasharray:none;stroke-opacity:1"
             id="path1468" /></g></g></g></g></svg>
